<?xml version="1.0" encoding="UTF-8" standalone="no"?>
<!-- Created with Inkscape (http://www.inkscape.org/) -->

<svg
   width="101.43278mm"
   height="78.786774mm"
   viewBox="0 0 101.43278 78.786774"
   version="1.1"
   id="svg1"
   xml:space="preserve"
   inkscape:version="1.4.3 (0d15f75042, 2025-12-25)"
   sodipodi:docname="logo.svg"
   xmlns:inkscape="http://www.inkscape.org/namespaces/inkscape"
   xmlns:sodipodi="http://sodipodi.sourceforge.net/DTD/sodipodi-0.dtd"
   xmlns="http://www.w3.org/2000/svg"
   xmlns:svg="http://www.w3.org/2000/svg"><sodipodi:namedview
     id="namedview1"
     pagecolor="#ffffff"
     bordercolor="#000000"
     borderopacity="0.25"
     inkscape:showpageshadow="2"
     inkscape:pageopacity="0.0"
     inkscape:pagecheckerboard="0"
     inkscape:deskcolor="#d1d1d1"
     inkscape:document-units="mm"
     inkscape:zoom="2.0988496"
     inkscape:cx="117.44529"
     inkscape:cy="166.75802"
     inkscape:window-width="1920"
     inkscape:window-height="1027"
     inkscape:window-x="0"
     inkscape:window-y="0"
     inkscape:window-maximized="1"
     inkscape:current-layer="layer1" /><defs
     id="defs1" /><g
     inkscape:label="Layer 1"
     inkscape:groupmode="layer"
     id="layer1"
     transform="translate(-49.997702,-72.636933)"><path
       style="fill:none;stroke:#ffffff;stroke-width:0.865;stroke-linecap:round;stroke-linejoin:round;stroke-opacity:1"
       d="m 68.132868,101.18343 c 12.549025,-29.279649 55.508912,-32.145579 71.980892,-6.870323 -2.97953,-2.380671 -21.39444,-2.457173 -36.82542,-0.0041 -11.551702,1.836412 -19.3138,8.496703 -18.641467,20.299893 0.138518,12.19828 5.010725,18.81575 17.986297,20.47624 9.65724,1.23585 31.27075,-1.04474 41.09245,-4.78927 -3.36063,10.59234 -20.63442,17.41322 -38.96377,16.69553 -14.230349,-0.5572 -33.553867,-2.49385 -38.582931,-17.06607 10.092748,0.31163 13.604732,-7.65897 13.544317,-14.0798 -0.06884,-7.31567 -5.254862,-15.12813 -11.590368,-14.66214 z"
       id="path1"
       sodipodi:nodetypes="ccscscscsc" /><path
       style="fill:none;stroke:#ffffff;stroke-width:0.865;stroke-linecap:round;stroke-linejoin:round;stroke-opacity:1"
       d="m 64.039048,100.78586 c 6.826744,-16.655868 21.66866,-25.628447 38.448642,-27.67041 27.77628,-1.03898 41.13827,15.669914 46.39049,28.868 4.52577,16.40079 1.70959,29.06619 -7.31154,38.5747 -3.71426,3.1132 -6.12632,4.27309 -8.69822,5.67275"
       id="path2"
       sodipodi:nodetypes="ccccc" /><path
       style="fill:none;stroke:#ffffff;stroke-width:0.865;stroke-linecap:round;stroke-linejoin:round;stroke-opacity:1"
       d="m 60.502872,88.069007 3.975903,15.951343 c 4.780469,1.54181 7.777571,4.75552 8.100805,11.50337 -0.180047,3.73556 -1.444882,10.93285 -8.84543,12.52622 -8.21543,0.54097 -10.007537,-9.01344 -9.983531,-11.72397 0.08953,-2.34685 0.607856,-8.36286 6.507123,-12.03372 L 56.736765,89.250095"
       id="path3"
       sodipodi:nodetypes="ccccccc" /><path
       style="fill:none;stroke:#ffffff;stroke-width:0.865;stroke-linecap:round;stroke-linejoin:round;stroke-opacity:1"
       d="m 63.881473,102.04648 c 1.281085,-0.41158 2.749393,-0.87853 4.601231,-0.88243"
       id="path4"
       sodipodi:nodetypes="cc" /><path
       style="fill:none;stroke:#ffffff;stroke-width:0.865;stroke-linecap:round;stroke-linejoin:round;stroke-opacity:1"
       d="m 58.902057,105.32406 c 1.956687,-1.4097 4.084081,-1.89757 6.460633,-1.04"
       id="path5"
       sodipodi:nodetypes="cc" /><path
       style="fill:none;stroke:#ffffff;stroke-width:0.865;stroke-linecap:round;stroke-linejoin:round;stroke-opacity:1"
       d="m 62.337224,108.2865 c -2.367564,0.83226 -4.719456,2.88314 -4.804961,8.50913 0.503443,5.29096 2.816349,6.93229 5.750418,7.31154 4.868275,-0.11703 5.817186,-6.36882 5.798812,-7.68973 -0.225091,-5.91097 -3.02173,-8.76206 -6.744269,-8.13094 z"
       id="path6"
       sodipodi:nodetypes="ccccc" /><path
       style="fill:#00ccff;stroke:#ffffff;stroke-width:0.865;stroke-linecap:round;stroke-linejoin:round;stroke-opacity:1"
       d="m 61.238267,127.92481 c 2.374225,7.7305 6.382398,14.6573 17.827736,18.97572"
       id="path7"
       sodipodi:nodetypes="cc" /><path
       style="fill:none;stroke:#ffffff;stroke-width:0.865;stroke-linecap:round;stroke-linejoin:round;stroke-opacity:1"
       d="m 78.976865,146.87824 c 15.463303,3.96741 30.876395,7.09264 53.817465,-0.62397"
       id="path8"
       sodipodi:nodetypes="cc" /><path
       style="fill:none;stroke:#ffffff;stroke-width:0.865;stroke-linecap:round;stroke-linejoin:round;stroke-opacity:1"
       d="m 112.13645,96.71546 c 11.06071,-0.842709 21.7208,-1.421596 27.98954,0.891386 5.43137,2.572534 6.58681,8.439304 7.06424,15.420994 -0.0131,1.89911 0.2161,3.65666 0.11319,5.2216 -0.42641,6.48477 -4.64243,10.04481 -15.46733,11.80388 -10.2322,1.48093 -20.64877,2.71603 -33.159581,1.15881 -9.21937,-2.23385 -10.657142,-9.27999 -10.964055,-17.02549 0.435392,-18.026354 19.165516,-16.393284 24.423996,-17.47118 z"
       id="path9"
       sodipodi:nodetypes="cccscccc" /><ellipse
       style="fill:#ff0000;stroke:#ff0000;stroke-width:0.846207;stroke-linecap:round;stroke-linejoin:round;stroke-opacity:1"
       id="path10"
       ry="6.650228"
       rx="6.5165191"
       cy="82.497841"
       cx="56.937325" /><path
       style="fill:#ffffff;stroke:#ffffff;stroke-width:1.10143;stroke-linecap:round;stroke-linejoin:round;stroke-opacity:1;fill-opacity:1"
       d="m 384.40526,568.48101 c -11.65654,-0.64425 -46.75434,-4.07058 -59.58498,-6.43041 -15.80986,-2.90777 -23.52629,-7.77764 -28.54527,-9.81425 -15.67722,-6.36155 -27.59914,-13.96418 -37.54852,-23.94476 -10.40888,-10.44152 -17.85255,-22.83732 -23.51513,-39.15926 l -1.18598,-3.4185 3.7667,0.0334 c 3.0126,0.0267 4.3063,-0.12316 6.46192,-0.74856 17.8258,-5.17171 28.32659,-19.33538 31.31804,-42.24238 0.60984,-4.66986 0.64503,-7.05276 0.16519,-11.18474 -1.84097,-15.85293 -7.74688,-26.84673 -18.16609,-33.81602 -2.99638,-2.00425 -8.67178,-4.91602 -11.17898,-5.7354 -1.16813,-0.38176 -1.26033,-0.52249 -1.80894,-2.76113 -0.31794,-1.29738 -0.52208,-2.41101 -0.45364,-2.47475 0.0684,-0.0637 1.26147,-0.43046 2.65119,-0.81496 8.47708,-2.34539 16.37478,-2.30836 22.53458,0.10565 14.39787,5.64248 26.51222,23.57859 29.55403,43.75672 0.6786,4.50163 0.66041,12.82304 -0.0384,17.57429 -1.70632,11.60092 -6.05987,21.22624 -12.89486,28.50941 -7.8498,8.3645 -18.20547,12.68393 -31.91194,13.31072 -2.59414,0.11863 -4.90613,0.36527 -5.13775,0.54809 -0.71345,0.56313 -0.47379,2.13509 0.81731,5.36088 11.11566,27.77227 37.12406,45.77581 79.46372,55.00635 19.34729,4.21794 44.85483,6.75589 71.91448,7.15533 24.34156,0.35932 43.0505,-1.63818 63.5307,-6.78299 41.09493,-10.32342 70.7595,-30.87428 79.44155,-55.0351 0.97492,-2.71303 1.09062,-3.76652 0.48065,-4.37649 -0.64777,-0.64776 -1.35348,-0.50629 -7.11198,1.42575 -24.72744,8.29631 -66.02101,14.8989 -106.52509,17.0327 -8.39609,0.44232 -28.20808,0.43463 -34.46933,-0.0134 -2.72152,-0.19473 -7.52551,-0.72534 -10.67555,-1.17913 -40.82561,-5.88131 -60.05578,-25.32118 -63.4706,-64.16273 -0.62345,-7.0914 -0.81595,-18.42479 -0.39197,-23.07779 1.46551,-16.08343 7.14012,-28.7935 17.53854,-39.28305 11.09521,-11.19246 26.54207,-18.78434 46.15558,-22.68473 15.64301,-3.1108 45.64316,-6.22695 70.19745,-7.29148 11.99127,-0.51987 40.44723,-0.22481 47.9651,0.49735 12.41584,1.19266 19.38423,2.64987 23.64883,4.9454 2.24114,1.20636 2.88055,1.22912 3.60189,0.12822 0.71886,-1.09712 0.49683,-1.60258 -2.65771,-6.05044 -10.20194,-14.38462 -23.57833,-27.22914 -38.14747,-36.63066 -27.24144,-17.579 -60.13362,-26.20268 -94.69856,-24.82808 -31.40417,1.2489 -61.02732,10.67303 -86.0494,27.37524 -7.89864,5.27234 -14.13772,10.3594 -21.34722,17.40555 -12.48944,12.20646 -21.9821,25.39575 -29.54072,41.04447 -1.10312,2.28382 -2.00568,4.28573 -2.00568,4.44869 0,0.16296 -0.49272,0.3703 -1.09493,0.46077 -0.60222,0.0905 -2.2683,0.3355 -3.70241,0.54453 -1.43412,0.20904 -3.93562,0.73506 -5.55889,1.16894 -1.62327,0.43388 -3.02147,0.71943 -3.1071,0.63456 -0.0856,-0.0849 0.0339,-0.45796 0.26571,-0.8291 0.23178,-0.37113 1.1926,-2.44882 2.13515,-4.61708 9.52016,-21.90031 24.28759,-41.9644 42.22591,-57.37117 22.36459,-19.20838 50.88519,-32.77552 82.37256,-39.18433 13.11726,-2.66983 13.75695,-2.73125 28.29977,-2.7174 13.90616,0.0132 18.9736,0.33848 29.31048,1.88118 32.53967,4.85629 59.89441,16.77851 83.72017,36.48839 5.29058,4.37664 15.99932,15.09158 20.39536,20.40716 11.24953,13.60267 20.17338,28.12257 27.0211,43.96572 1.64461,3.80502 2.56572,6.59337 3.72836,11.28622 2.75008,11.10043 4.5837,21.5864 5.68501,32.51105 0.67548,6.70067 0.57122,24.99797 -0.17854,31.3319 -3.27678,27.68185 -13.72939,50.98056 -31.92285,71.15553 -5.4167,6.00664 -16.66758,13.882 -30.8426,21.58911 -4.05877,2.2068 -9.8776,4.2458 -21.68027,7.59707 -24.39515,6.9268 -46.23433,10.68798 -69.73872,12.01051 -6.8511,0.38549 -22.18631,0.36644 -29.47894,-0.0366 z m 47.33475,-68.35196 c 18.77289,-0.75645 38.85687,-2.75474 62.60646,-6.22912 40.27718,-5.89225 58.50724,-17.33465 63.24602,-39.69741 1.02577,-4.84069 1.16307,-9.31998 0.65159,-21.2575 -0.63411,-14.79983 -1.6426,-23.60548 -3.70705,-32.36846 -3.7781,-16.03689 -11.68668,-27.24801 -23.14559,-32.81092 -5.39185,-2.61757 -17.12905,-5.0148 -29.91271,-6.10946 -6.96801,-0.59666 -26.95407,-0.78896 -37.56458,-0.36142 -14.80763,0.59665 -38.49461,2.14235 -41.9443,2.73709 -1.01913,0.17569 -5.87052,0.70074 -10.78087,1.16677 -21.68857,2.05838 -32.9788,4.3169 -43.86141,8.77411 -13.45317,5.51004 -23.15821,13.69187 -29.55384,24.91535 -5.771,10.12734 -8.69143,24.30984 -7.79211,37.84091 1.34287,20.2048 4.99023,32.75239 12.36717,42.54536 7.87445,10.45342 20.62071,17.36425 34.98153,18.96645 17.62643,1.96653 36.34516,2.61615 54.40969,1.88825 z"
       id="path15"
       transform="scale(0.26458333)"
       sodipodi:nodetypes="ssssscssssssssssssssssssssssssssssssssssssssssssssssssssssssssssssssssssssssssssssss" /><path
       style="fill:#ffffff;stroke:#ffffff;stroke-width:1.10143;stroke-linecap:round;stroke-linejoin:round;stroke-opacity:1;fill-opacity:1"
       d="m 235.44239,466.49285 c -3.62594,-1.07183 -5.8571,-2.40212 -8.54495,-5.09481 -3.89147,-3.89846 -6.02654,-8.92236 -7.22662,-17.0045 -1.06325,-7.16061 0.64554,-16.74865 4.11645,-23.0975 1.83007,-3.34748 5.96107,-7.25844 9.52999,-9.02238 2.70706,-1.33796 3.04683,-1.42158 5.77608,-1.42158 6.90566,0 12.30524,3.53583 15.8894,10.40492 3.31241,6.34829 5.01467,16.88882 3.78086,23.41129 -2.08835,11.03984 -7.16128,18.85907 -13.92237,21.45942 -2.65896,1.02265 -6.64998,1.1777 -9.39884,0.36514 z"
       id="path16"
       transform="scale(0.26458333)" /><path
       style="fill:#ffffff;stroke:#ffffff;stroke-width:1.10143;stroke-linecap:round;stroke-linejoin:round;stroke-opacity:1;fill-opacity:1"
       d="m 229.10889,391.93629 c -0.0873,-0.25084 -2.91337,-12.25996 -6.28025,-26.68693 -6.59733,-28.26938 -6.37111,-26.81492 -4.17242,-26.82607 1.36945,-0.007 5.63946,-1.21176 7.30372,-2.0608 0.74019,-0.37762 1.39795,-0.63443 1.46169,-0.57069 0.27912,0.27912 12.28419,48.87101 12.28419,49.72167 0,0.52079 0.13944,1.09092 0.30986,1.26695 0.17042,0.17604 0.52498,1.15389 0.78792,2.17302 l 0.47807,1.85296 -3.39891,0.0436 c -2.91779,0.0374 -6.04801,0.55723 -8.10187,1.34537 -0.28234,0.10835 -0.58474,-0.008 -0.672,-0.25909 z"
       id="path17"
       transform="scale(0.26458333)" /><path
       style="fill:#00ccff;stroke:#ffffff;stroke-width:2.20286;stroke-linecap:round;stroke-linejoin:round;stroke-opacity:1"
       d="m 404.28249,496.466 c -10.41988,-0.32208 -30.15238,-2.278 -34.02711,-3.37283 -22.86155,-6.45968 -34.04983,-23.06424 -36.23265,-53.77298 -2.00267,-28.17426 8.2877,-48.69016 29.83151,-59.47511 9.99849,-5.0053 22.03969,-8.07483 38.85015,-9.90365 5.31506,-0.57822 13.75711,-1.4949 18.7601,-2.03706 17.91798,-1.94171 33.72472,-2.68516 57.27335,-2.69377 25.83256,-0.009 32.25793,0.56231 44.65732,3.97387 6.97376,1.91876 11.07054,4.3823 16.15896,9.71698 9.73805,10.20933 13.83721,25.87267 15.01832,57.38673 0.67496,18.00905 -1.8305,26.44483 -10.3942,34.99677 -10.28081,10.2667 -26.58593,15.72276 -60.38686,20.20679 -25.99582,3.4486 -54.76761,5.66239 -68.72803,5.28814 -2.59414,-0.0695 -7.44553,-0.21079 -10.78086,-0.31388 z"
       id="path18"
       transform="scale(0.26458333)" /><path
       style="fill:#929292;stroke:#ffffff;stroke-width:1.55766;stroke-linecap:round;stroke-linejoin:round;stroke-opacity:1;fill-opacity:1"
       d="m 201.06252,278.95985 c -40.78756,-2.17825 -67.05281,-6.79221 -88.60234,-15.56456 -22.136898,-9.01147 -37.45068,-22.02407 -45.881144,-38.98664 -3.104304,-6.24604 -3.361332,-5.68985 2.932584,-6.34591 22.496729,-2.34502 37.59361,-16.11703 43.05739,-39.27876 1.12879,-4.7851 1.26548,-6.32003 1.28314,-14.40822 0.022,-10.0908 -0.49163,-13.49783 -3.31413,-21.98277 -5.13731,-15.44365 -14.983318,-27.82048 -26.458003,-33.25878 -3.343316,-1.58453 -8.827902,-3.09639 -11.302053,-3.11548 -0.589609,-0.005 -1.072016,-0.13853 -1.072016,-0.29773 0,-0.1592 1.553444,-3.32164 3.452099,-7.027659 3.764489,-7.347968 9.884247,-16.816321 14.979386,-23.175781 4.435017,-5.535533 13.734927,-15.049173 19.208177,-19.649627 31.2676,-26.281456 74.10655,-39.752947 116.25417,-36.558247 36.86782,2.794504 69.6494,16.894976 93.98237,40.425013 5.63958,5.453484 15.39043,16.629167 14.91974,17.099858 -0.10526,0.105258 -1.87096,-0.137065 -3.92378,-0.538495 -11.47154,-2.243271 -21.44488,-2.89804 -43.75432,-2.872545 -23.69414,0.02708 -40.9983,1.044253 -64.55917,3.794927 -28.35468,3.310337 -39.8771,6.08905 -54.07725,13.04112 -8.33841,4.082294 -13.88289,7.979247 -20.03737,14.083306 -9.65887,9.57975 -15.50126,20.988 -18.17803,35.49564 -0.98863,5.35815 -1.0843,24.08085 -0.16557,32.3987 4.61858,41.81485 27.69904,62.13338 75.27765,66.26953 8.35277,0.72612 39.51867,0.28823 51.7233,-0.72675 35.08128,-2.91747 69.21425,-8.69429 89.20209,-15.09696 2.47887,-0.79406 4.5821,-1.36865 4.67387,-1.27689 0.38096,0.38096 -1.94672,4.73818 -4.91252,9.1958 -16.68833,25.08275 -58.43373,43.58865 -108.0215,47.88637 -8.08462,0.70069 -27.67989,0.95255 -36.68677,0.47154 z"
       id="path11"
       transform="matrix(0.26458333,0,0,0.26458333,49.997702,72.636933)" /><path
       style="fill:#929292;stroke:#929292;stroke-width:1.55766;stroke-linecap:round;stroke-linejoin:round;stroke-opacity:1;fill-opacity:1"
       d="m 42.165956,206.74056 c -13.41798,-3.54001 -23.237423,-17.64883 -25.752116,-37.00128 -1.195785,-9.20246 1.602892,-22.12762 6.78389,-31.33012 6.544193,-11.62381 17.933591,-19.24385 27.559294,-18.43845 9.283846,0.7768 21.5481,9.08508 26.520748,17.96619 5.206685,9.2991 7.175993,21.99498 5.172638,33.34741 -2.202664,12.48187 -7.369828,22.42752 -14.912679,28.70359 -7.531879,6.26696 -17.329204,8.87449 -25.371775,6.75266 z m 11.111215,-10.66404 c 8.427232,-1.38018 14.885655,-7.83495 18.370493,-18.36012 2.078262,-6.27692 2.630712,-10.9061 1.991052,-16.68376 -0.743564,-6.71617 -1.706744,-10.30189 -4.119704,-15.33682 -2.667523,-5.56611 -5.956173,-9.069 -10.52715,-11.21297 -2.801047,-1.31381 -3.88948,-1.54919 -7.924331,-1.71375 -4.617779,-0.18833 -4.723868,-0.16781 -8.3379,1.61264 -2.530408,1.2466 -4.63172,2.77191 -6.805938,4.94032 -11.864105,11.83243 -12.227508,38.627 -0.681835,50.27341 2.923653,2.94916 6.221793,4.76965 10.826522,5.97596 4.179768,1.09498 3.778567,1.06687 7.208791,0.50509 z"
       id="path12"
       transform="matrix(0.26458333,0,0,0.26458333,49.997702,72.636933)" /></g></svg>
